<svg width="30" height="16" viewBox="0 0 30 16" fill="none" xmlns="http://www.w3.org/2000/svg">
<path d="M29.337 7.94633L25.6409 3.77643C25.5203 3.64051 25.3463 3.56246 25.1634 3.56246H22.0856V0.987246C22.0856 0.640804 21.8014 0.359985 21.4509 0.359985H8.34142C7.99092 0.359985 7.7067 0.640804 7.7067 0.987246V1.83364H1.60201C1.25151 1.83364 0.967285 2.11446 0.967285 2.4609C0.967285 2.80734 1.25151 3.08816 1.60201 3.08816H7.7067V11.2194H4.03201C3.68151 11.2194 3.39728 11.5002 3.39728 11.8466C3.39728 12.1931 3.68151 12.4739 4.03201 12.4739H7.7067V13.1113C7.7067 13.4578 7.99092 13.7386 8.34142 13.7386H9.66627C9.94539 14.7435 10.8773 15.4842 11.9816 15.4842C13.0859 15.4842 14.0177 14.7435 14.2969 13.7386H22.7663V13.7385C23.0455 14.7434 23.9774 15.4841 25.0816 15.4841C26.1859 15.4841 27.1178 14.7434 27.397 13.7385H28.8596C29.2101 13.7385 29.4944 13.4577 29.4944 13.1113V8.35957C29.4943 8.20759 29.4383 8.06067 29.337 7.94633ZM11.9816 14.2296C11.3576 14.2296 10.85 13.728 10.85 13.1113C10.85 12.4947 11.3576 11.993 11.9816 11.993C12.6055 11.993 13.1132 12.4947 13.1132 13.1113C13.1132 13.728 12.6055 14.2296 11.9816 14.2296ZM14.2968 12.4841C14.0177 11.4792 13.0857 10.7385 11.9814 10.7385C10.8772 10.7385 9.94533 11.4792 9.66614 12.4841H8.97603V1.61444H20.8159V12.4841H14.2968ZM25.0815 14.2296C24.4576 14.2296 23.95 13.728 23.95 13.1113C23.95 12.4947 24.4576 11.993 25.0815 11.993C25.7055 11.993 26.2131 12.4947 26.2131 13.1113C26.2131 13.728 25.7055 14.2296 25.0815 14.2296ZM28.2248 12.4841H27.3969C27.1178 11.4792 26.1858 10.7385 25.0815 10.7385C23.9772 10.7385 23.0454 11.4792 22.7662 12.4841H22.0854V4.81698H24.8755L28.2248 8.59549V12.4841H28.2248Z" fill="white"/>
</svg>
